# xmcd
#
# Track frame offsets:
#	150
#	18825
#	47561
#	70006
#	94784
#	129895
#	160444
#
# Disc length: 2682 seconds
#
# Revision: 1
# Processed by: cddbd v1.5.1PL2 Copyright (c) Steve Scherf et al.
# Submitted via: EasyCDDAExtractor 9.0.0.1
#
DISCID=4d0a7807
DTITLE=Kiss - Playhouse Theatre Edinburgh 28-10-83 Disc 2
DYEAR=1983
DGENRE=Hard Rock
TTITLE0=I Love It Loud
TTITLE1=I Still Love You
TTITLE2=Young And Wasted
TTITLE3=Love Gun
TTITLE4=Black Diamond
TTITLE5=Lick It Up
TTITLE6=Rock And Roll All Nite
EXTD=
EXTT0=
EXTT1=
EXTT2=
EXTT3=
EXTT4=
EXTT5=
EXTT6=
PLAYORDER=
